<svg width="150" height="150" viewBox="0 0 230 230" fill="none" xmlns="http://www.w3.org/2000/svg">
<path d="M42.7187 134.75C40.9009 134.75 39.4374 136.364 39.4374 138.369V174.614C39.4374 184.622 32.0891 192.744 23 192.744C13.9109 192.744 6.56263 184.622 6.56263 174.614V131.114C6.56263 125.115 10.9685 120.239 16.422 120.239C21.8754 120.239 26.2813 125.115 26.2813 131.114V167.375C26.2813 169.38 24.8024 170.994 23 170.994C21.1976 170.994 19.7187 169.38 19.7187 167.375V138.369C19.7187 136.364 18.2398 134.75 16.4374 134.75C14.6196 134.75 13.1561 136.364 13.1561 138.369V167.375C13.1561 173.39 17.562 178.25 23.0154 178.25C28.4689 178.25 32.8748 173.39 32.8748 167.375V131.131C32.8593 121.122 25.4956 113 16.422 113C7.34829 113 0 121.122 0 131.131V174.631C0 188.649 10.3061 200 23 200C35.6939 200 46 188.632 46 174.631V138.369C46 136.364 44.5365 134.75 42.7187 134.75Z" fill="#03004D"/>
<path d="M177.25 0H64.75C54.4375 0 46 9 46 20V180C46 191 54.4375 200 64.75 200H177.25C187.563 200 196 191 196 180V20C196 9 187.563 0 177.25 0ZM92.875 20H111.625V70L102.25 62.5L92.875 70V20ZM177.25 180H64.75V20H74.125V110L102.25 87.5L130.375 110V20H177.25V180Z" fill="black"/>
</svg>
