<svg width="150" height="150" viewBox="0 0 230 230" fill="none" xmlns="http://www.w3.org/2000/svg">
<path d="M0 15.9095C0 7.11835 6.53333 0 14.5833 0H118.75C126.808 0 133.333 7.11835 133.333 15.9095V102.275C133.333 106.495 131.797 110.541 129.062 113.525C126.327 116.508 122.618 118.185 118.75 118.185H67.175L45.725 141.576C44.027 143.428 41.8639 144.688 39.5092 145.199C37.1545 145.71 34.7139 145.447 32.4958 144.445C30.2777 143.443 28.3818 141.746 27.0476 139.569C25.7134 137.391 25.0008 134.831 25 132.212V118.185H14.5833C10.7156 118.185 7.00626 116.508 4.27136 113.525C1.53645 110.541 0 106.495 0 102.275L0 15.9095ZM14.5833 13.6367C14.0308 13.6367 13.5009 13.8761 13.1102 14.3024C12.7195 14.7286 12.5 15.3067 12.5 15.9095V102.275C12.5 103.53 13.4333 104.548 14.5833 104.548H31.25C32.9076 104.548 34.4973 105.266 35.6694 106.545C36.8415 107.824 37.5 109.558 37.5 111.366V131.267L60.1667 106.548C60.7457 105.913 61.4339 105.41 62.1919 105.067C62.9499 104.724 63.7626 104.547 64.5833 104.548H118.75C119.303 104.548 119.832 104.308 120.223 103.882C120.614 103.456 120.833 102.878 120.833 102.275V15.9095C120.833 15.3067 120.614 14.7286 120.223 14.3024C119.832 13.8761 119.303 13.6367 118.75 13.6367H14.5833ZM185.417 68.1834H156.25C154.592 68.1834 153.003 67.465 151.831 66.1863C150.658 64.9077 150 63.1734 150 61.3651C150 59.5567 150.658 57.8224 151.831 56.5438C153.003 55.2651 154.592 54.5467 156.25 54.5467H185.417C193.467 54.5467 200 61.6741 200 70.4562V156.822C200 161.041 198.464 165.088 195.729 168.071C192.994 171.055 189.284 172.731 185.417 172.731H175V186.759C174.999 189.378 174.287 191.938 172.952 194.115C171.618 196.293 169.722 197.99 167.504 198.992C165.286 199.994 162.845 200.256 160.491 199.746C158.136 199.235 155.973 197.974 154.275 196.123L132.825 172.731H89.5833C85.7156 172.731 82.0063 171.055 79.2714 168.071C76.5364 165.088 75 161.041 75 156.822V143.503C75 141.695 75.6585 139.961 76.8306 138.682C78.0027 137.403 79.5924 136.685 81.25 136.685C82.9076 136.685 84.4973 137.403 85.6694 138.682C86.8415 139.961 87.5 141.695 87.5 143.503V156.822C87.5 158.076 88.4333 159.095 89.5833 159.095H135.417C137.075 159.095 138.667 159.813 139.833 161.095L162.5 185.813V165.913C162.5 164.105 163.158 162.37 164.331 161.092C165.503 159.813 167.092 159.095 168.75 159.095H185.417C185.969 159.095 186.499 158.855 186.89 158.429C187.281 158.003 187.5 157.425 187.5 156.822V70.4562C187.5 69.8534 187.281 69.2753 186.89 68.8491C186.499 68.4228 185.969 68.1834 185.417 68.1834ZM70.8333 34.0917V62.6378L80.4167 67.0743C80.521 67.122 80.6238 67.1736 80.725 67.2288L92.3333 73.4199C93.823 74.2155 94.9619 75.6242 95.4995 77.3359C96.0371 79.0477 95.9293 80.9223 95.2 82.5474C94.4706 84.1724 93.1794 85.4149 91.6104 86.0014C90.0413 86.5879 88.323 86.4704 86.8333 85.6747L75.3833 79.5564L62.1417 73.429C61.0121 72.9047 60.0488 72.0297 59.3717 70.9127C58.6945 69.7957 58.3334 68.4862 58.3333 67.147V34.0917C58.3333 32.2834 58.9918 30.5491 60.1639 29.2704C61.336 27.9917 62.9257 27.2734 64.5833 27.2734C66.2409 27.2734 67.8306 27.9917 69.0027 29.2704C70.1748 30.5491 70.8333 32.2834 70.8333 34.0917Z" fill="black"/>
</svg>
