<svg width="150" height="150" viewBox="0 0 230 230" fill="none" xmlns="http://www.w3.org/2000/svg">
<path fill-rule="evenodd" clip-rule="evenodd" d="M163.929 1H97.1429L92.8929 3.53165L85 14.3333L77.1071 3.53165L72.8571 1H6.07143L0 9.43882V178.215L6.07143 186.654H70.3071L80.75 201H89.25L99.6929 186.654H163.929L170 178.215V9.43882L163.929 1ZM78.9286 175.177L76.7429 172.308L72.8571 169.776H12.1429V17.8776H70.3071L79.2929 30.3671L78.9286 175.177ZM157.857 169.776H97.1429L92.8929 172.308L91.1929 174.502V29.692L99.6929 17.8776H157.857V169.776ZM60.7143 51.6329H24.2857V68.5105H60.7143V51.6329ZM60.7143 119.143H24.2857V136.021H60.7143V119.143ZM24.2857 85.3882H60.7143V102.266H24.2857V85.3882ZM145.714 51.6329H109.286V68.5105H145.714V51.6329ZM109.286 85.3882H145.714V102.266H109.286V85.3882ZM109.286 119.143H145.714V136.021H109.286V119.143Z" fill="black"/>
<path d="M201.25 86.4167V32.3042L185.625 1L170 32.3042V86.4167H201.25ZM180.579 11.1104H190.654Z" fill="#FF3F3F"/>
<path d="M180.579 11.1104H190.654M201.25 86.4167V32.3042L185.625 1L170 32.3042V86.4167H201.25Z" stroke="#FF3F3F" stroke-linecap="round" stroke-linejoin="round"/>
</svg>
