<svg width="150" height="150" viewBox="0 0 230 230" fill="none" xmlns="http://www.w3.org/2000/svg">
<path d="M8.59464 0L6.08036 5.28711L9.82143 13.1614L12.3321 7.87425L8.59464 0ZM41.4071 0L37.6661 7.87425L40.1786 13.1614L43.9179 5.29087L41.4071 0ZM25 2.34648C24.4107 2.36152 23.8143 2.43297 23.2143 2.58715C23.1964 2.58715 23.1786 2.57963 23.1607 2.58715C15.9179 4.33573 10.1536 16.6585 9.15179 31.843C8.35179 44.0642 10.7446 55.1461 14.7321 62.2833C16.3632 65.2147 17.4665 69.2373 17.8571 73.6773V96.2396H21.9286C22.55 98.4846 23.6839 100 25 100C26.3161 100 27.45 98.4846 28.0714 96.2396H32.1429V81.1981H32.3107V76.7307C32.3107 71.218 33.6714 65.6601 35.8821 61.3394C38.8393 55.1047 41.0714 46.249 41.0714 36.0772C41.0714 17.5008 33.8107 2.1735 25 2.34648ZM25 9.86726C31.9018 9.6642 37.5 21.5621 37.5 36.0772C37.5 43.9514 35.7679 50.8856 33.3696 55.932L33.4268 56.0523C31.0435 60.6803 29.5024 66.9154 29.0696 73.681H21.2589C20.8661 67.2357 19.5536 60.9973 17.0732 56.5224C13.9179 50.8818 12.0375 42.3833 12.6661 32.7868C13.4464 20.9416 18.0107 11.4165 23.6036 10.1117C24.0653 9.97611 24.5304 9.89577 24.9964 9.87102L25 9.86726ZM0 36.0772V43.5979H5.35714V36.0772H0ZM44.6429 36.0772V43.5979H50V36.0772H44.6429ZM9.82143 66.5137L6.08214 74.3842L8.59464 79.6751L12.3304 71.8008L9.82143 66.5137ZM40.1786 66.5137L37.6679 71.8008L41.4054 79.6751L43.9179 74.3842L40.1786 66.5137ZM21.4286 81.2018H28.5714V88.7226H21.4286V81.2018Z" fill="#0065E3"/>
<path d="M125 15.3846C122.158 15.3846 119.433 17.0055 117.424 19.8907C115.415 22.7758 114.286 26.689 114.286 30.7692C114.286 34.8495 115.415 38.7626 117.424 41.6478C119.433 44.533 122.158 46.1538 125 46.1538C127.842 46.1538 130.567 44.533 132.576 41.6478C134.585 38.7626 135.714 34.8495 135.714 30.7692C135.714 26.689 134.585 22.7758 132.576 19.8907C130.567 17.0055 127.842 15.3846 125 15.3846ZM103.571 30.7692C103.571 22.6087 105.829 14.7824 109.848 9.0121C113.866 3.24175 119.317 0 125 0C130.683 0 136.134 3.24175 140.152 9.0121C144.171 14.7824 146.429 22.6087 146.429 30.7692C146.429 38.9297 144.171 46.756 140.152 52.5264C136.134 58.2967 130.683 61.5385 125 61.5385C119.317 61.5385 113.866 58.2967 109.848 52.5264C105.829 46.756 103.571 38.9297 103.571 30.7692ZM175.893 23.0769C173.762 23.0769 171.718 24.2926 170.211 26.4565C168.704 28.6203 167.857 31.5552 167.857 34.6154C167.857 37.6756 168.704 40.6104 170.211 42.7743C171.718 44.9382 173.762 46.1538 175.893 46.1538C178.024 46.1538 180.068 44.9382 181.575 42.7743C183.082 40.6104 183.929 37.6756 183.929 34.6154C183.929 31.5552 183.082 28.6203 181.575 26.4565C180.068 24.2926 178.024 23.0769 175.893 23.0769ZM157.143 34.6154C157.143 31.0798 157.628 27.5788 158.57 24.3124C159.512 21.0459 160.894 18.0779 162.635 15.5779C164.376 13.0779 166.443 11.0947 168.718 9.7417C170.992 8.38869 173.431 7.69231 175.893 7.69231C178.355 7.69231 180.793 8.38869 183.068 9.7417C185.343 11.0947 187.41 13.0779 189.151 15.5779C190.892 18.0779 192.273 21.0459 193.216 24.3124C194.158 27.5788 194.643 31.0798 194.643 34.6154C194.643 41.7558 192.667 48.6038 189.151 53.6529C185.635 58.7019 180.866 61.5385 175.893 61.5385C170.92 61.5385 166.151 58.7019 162.635 53.6529C159.118 48.6038 157.143 41.7558 157.143 34.6154ZM66.0714 34.6154C66.0714 31.5552 66.918 28.6203 68.425 26.4565C69.932 24.2926 71.9759 23.0769 74.1071 23.0769C76.2383 23.0769 78.2823 24.2926 79.7893 26.4565C81.2962 28.6203 82.1429 31.5552 82.1429 34.6154C82.1429 37.6756 81.2962 40.6104 79.7893 42.7743C78.2823 44.9382 76.2383 46.1538 74.1071 46.1538C71.9759 46.1538 69.932 44.9382 68.425 42.7743C66.918 40.6104 66.0714 37.6756 66.0714 34.6154ZM74.1071 7.69231C69.1343 7.69231 64.3652 10.5288 60.8489 15.5779C57.3326 20.627 55.3571 27.4749 55.3571 34.6154C55.3571 41.7558 57.3326 48.6038 60.8489 53.6529C64.3652 58.7019 69.1343 61.5385 74.1071 61.5385C79.08 61.5385 83.8491 58.7019 87.3654 53.6529C90.8817 48.6038 92.8571 41.7558 92.8571 34.6154C92.8571 27.4749 90.8817 20.627 87.3654 15.5779C83.8491 10.5288 79.08 7.69231 74.1071 7.69231ZM85.6304 165.423C83.2075 167.716 80.3974 169.025 77.4984 169.209C74.5994 169.394 71.7197 168.448 69.1648 166.473C66.6099 164.497 64.4753 161.564 62.9875 157.987C61.4997 154.41 60.7141 150.321 60.7143 146.154V96.1538C60.7143 95.1338 60.9965 94.1555 61.4988 93.4342C62.0012 92.7129 62.6825 92.3077 63.3929 92.3077H84.9875C85.4761 86.6755 87.0452 81.3491 89.5196 76.9231H63.3929C59.8409 76.9231 56.4343 78.9492 53.9227 82.5556C51.411 86.1621 50 91.0535 50 96.1538V146.154C49.9986 152.777 51.1885 159.289 53.4545 165.059C55.7204 170.828 58.9856 175.659 62.9338 179.085C66.8819 182.51 71.3792 184.413 75.9901 184.61C80.6009 184.807 85.1689 183.29 89.2518 180.208C87.5786 175.541 86.36 170.566 85.6304 165.423ZM160.748 180.208C164.831 183.29 169.399 184.807 174.01 184.61C178.621 184.413 183.118 182.51 187.066 179.085C191.014 175.659 194.28 170.828 196.546 165.059C198.811 159.289 200.001 152.777 200 146.154V96.1538C200 91.0535 198.589 86.1621 196.077 82.5556C193.566 78.9492 190.159 76.9231 186.607 76.9231H160.48C162.953 81.351 164.521 86.6765 165.013 92.3077H186.607C187.318 92.3077 187.999 92.7129 188.501 93.4342C189.004 94.1555 189.286 95.1338 189.286 96.1538V146.154C189.286 150.321 188.5 154.41 187.013 157.987C185.525 161.564 183.39 164.497 180.835 166.473C178.28 168.448 175.401 169.394 172.502 169.209C169.603 169.025 166.793 167.716 164.37 165.423C163.64 170.566 162.421 175.541 160.748 180.208ZM106.25 76.9231C102.698 76.9231 99.2915 78.9492 96.7798 82.5556C94.2682 86.1621 92.8571 91.0535 92.8571 96.1538V153.846C92.8571 166.087 96.2436 177.826 102.272 186.482C108.3 195.137 116.475 200 125 200C133.525 200 141.7 195.137 147.728 186.482C153.756 177.826 157.143 166.087 157.143 153.846V96.1538C157.143 91.0535 155.732 86.1621 153.22 82.5556C150.709 78.9492 147.302 76.9231 143.75 76.9231H106.25ZM103.571 96.1538C103.571 95.1338 103.854 94.1555 104.356 93.4342C104.858 92.7129 105.54 92.3077 106.25 92.3077H143.75C144.46 92.3077 145.142 92.7129 145.644 93.4342C146.146 94.1555 146.429 95.1338 146.429 96.1538V153.846C146.429 162.007 144.171 169.833 140.152 175.603C136.134 181.374 130.683 184.615 125 184.615C119.317 184.615 113.866 181.374 109.848 175.603C105.829 169.833 103.571 162.007 103.571 153.846V96.1538Z" fill="black"/>
</svg>
