<svg width="150" height="150" viewBox="0 0 200 200" fill="none" xmlns="http://www.w3.org/2000/svg">
<path d="M134.637 75.5814L87.5784 38.3721C86.692 37.6706 85.6615 37.268 84.5972 37.2071C83.5328 37.1462 82.4744 37.4293 81.5352 38.0263C80.5959 38.6233 79.811 39.5117 79.2644 40.5966C78.7177 41.6815 78.4298 42.9222 78.4314 44.186V118.605C78.4298 119.869 78.7177 121.109 79.2644 122.194C79.811 123.279 80.5959 124.167 81.5352 124.764C82.4744 125.361 83.5328 125.645 84.5972 125.584C85.6615 125.523 86.692 125.12 87.5784 124.419L134.637 87.2093C135.446 86.5729 136.11 85.7089 136.569 84.6945C137.028 83.6801 137.268 82.5467 137.268 81.3954C137.268 80.2441 137.028 79.1106 136.569 78.0962C136.11 77.0818 135.446 76.2178 134.637 75.5814ZM90.1961 105.57V57.2209L120.765 81.3954L90.1961 105.57ZM186.275 0H13.7255C10.0853 0 6.59413 1.71511 4.0201 4.76803C1.44608 7.82095 0 11.9616 0 16.2791V146.512C0 150.829 1.44608 154.97 4.0201 158.023C6.59413 161.076 10.0853 162.791 13.7255 162.791H186.275C189.915 162.791 193.406 161.076 195.98 158.023C198.554 154.97 200 150.829 200 146.512V16.2791C200 11.9616 198.554 7.82095 195.98 4.76803C193.406 1.71511 189.915 0 186.275 0ZM188.235 146.512C188.235 147.128 188.029 147.72 187.661 148.156C187.293 148.592 186.795 148.837 186.275 148.837H13.7255C13.2055 148.837 12.7067 148.592 12.339 148.156C11.9713 147.72 11.7647 147.128 11.7647 146.512V16.2791C11.7647 15.6623 11.9713 15.0708 12.339 14.6346C12.7067 14.1985 13.2055 13.9535 13.7255 13.9535H186.275C186.795 13.9535 187.293 14.1985 187.661 14.6346C188.029 15.0708 188.235 15.6623 188.235 16.2791V146.512ZM200 193.023C200 194.874 199.38 196.648 198.277 197.957C197.174 199.265 195.678 200 194.118 200H5.88235C4.32226 200 2.82606 199.265 1.7229 197.957C0.619745 196.648 0 194.874 0 193.023C0 191.173 0.619745 189.398 1.7229 188.09C2.82606 186.782 4.32226 186.047 5.88235 186.047H194.118C195.678 186.047 197.174 186.782 198.277 188.09C199.38 189.398 200 191.173 200 193.023Z" fill="black"/>
<path opacity="0.8" d="M116.25 81.6477L67.5 124.083V39.2125L116.25 81.6477Z" fill="#FFFF61"/>
</svg>
